<?xml version="1.0" encoding="UTF-8" standalone="no"?>
<!-- Created with Inkscape (http://www.inkscape.org/) -->

<svg
   version="1.1"
   id="svg1"
   width="760"
   height="400"
   viewBox="0 0 760 400"
   sodipodi:docname="logo.svg"
   inkscape:export-filename="logo.png"
   inkscape:export-xdpi="96"
   inkscape:export-ydpi="96"
   inkscape:version="1.4.2 (f4327f4, 2025-05-13)"
   xmlns:inkscape="http://www.inkscape.org/namespaces/inkscape"
   xmlns:sodipodi="http://sodipodi.sourceforge.net/DTD/sodipodi-0.dtd"
   xmlns="http://www.w3.org/2000/svg"
   xmlns:svg="http://www.w3.org/2000/svg">
  <defs
     id="defs1" />
  <sodipodi:namedview
     id="namedview1"
     pagecolor="#505050"
     bordercolor="#eeeeee"
     borderopacity="1"
     inkscape:showpageshadow="0"
     inkscape:pageopacity="0"
     inkscape:pagecheckerboard="0"
     inkscape:deskcolor="#505050"
     inkscape:zoom="0.31968569"
     inkscape:cx="780.45407"
     inkscape:cy="599.02587"
     inkscape:window-width="1920"
     inkscape:window-height="991"
     inkscape:window-x="-9"
     inkscape:window-y="-9"
     inkscape:window-maximized="1"
     inkscape:current-layer="g1"
     showgrid="false"
     inkscape:export-bgcolor="#e6e6e600"
     showborder="false">
    <inkscape:page
       x="0"
       y="0"
       width="760"
       height="400"
       id="page1"
       margin="0"
       bleed="0" />
  </sodipodi:namedview>
  <g
     inkscape:groupmode="layer"
     inkscape:label="Image"
     id="g1">
    <path
       style="fill:#000000"
       d="M 38.7286,381.0792 C 27.69605,376.5424 19.23053,367.277 14.92475,355.0263 12.28473,347.515 11.30722,336.5867 12.92584,332.679 c 1.05385,-2.5442 1.86916,-2.9957 6.39105,-3.5389 2.8507,-0.3425 14.07059,-0.6266 24.93309,-0.6314 10.8625,0 19.75,-0.229 19.75,-0.4982 0,-0.2692 -3.64759,-3.9744 -8.10576,-8.2337 C 44.63965,309.0242 36.10342,297.2464 28.51467,282 21.47816,267.8631 18.11287,258.3815 14.87729,243.5771 c -1.89539,-8.6724 -2.1407,-13.7808 -2.59688,-54.0784 -0.4931,-43.5593 -0.46096,-44.5542 1.51827,-47 L 15.82072,140 41.46468,139.5 67.10864,139 58.01351,128.5 C 46.16773,114.8245 43.34541,110.4809 41.95574,103.7869 37.07415,80.2724 59.5983,60.871 78.75,72.0938 L 83,74.5843 87.3378,72.0422 C 91.0016,69.8951 92.9136,69.5 99.6421,69.5 c 7.0413,0 8.4884,0.3311 12.4625,2.8514 11.4426,7.2567 16.2719,25.4764 10.1209,38.1828 -1.1996,2.478 -6.8972,9.9735 -12.6614,16.6567 l -10.4803,12.1514 29.4237,0.3289 c 32.9257,0.368 32.6925,0.3157 32.6925,7.3288 0,7.4272 4.4432,6.9594 -69.8228,7.3502 l -66.55189,0.3502 0.45204,39.6498 c 0.40496,35.5207 0.66484,40.535 2.49545,48.1498 8.76804,36.4725 27.63962,63.8174 56.1812,81.4064 l 7.454,4.5936 h 44.546 44.546 l 6,-3.6149 c 7.2777,-4.3847 12.3315,-8.2228 19.1901,-14.5739 l 5.1902,-4.8052 37.3098,0.082 c 32.6292,0.071 36.9147,0.2548 34.1599,1.4621 -5.709,2.502 -15.5789,3.4411 -36.2436,3.4488 l -20.3935,0.01 -8.6065,8.2202 c -4.7335,4.5211 -8.7542,8.5646 -8.9349,8.9855 -0.1807,0.4208 13.5193,0.8842 30.4444,1.0297 l 30.7728,0.2646 1.9709,3.3753 c 1.8203,3.1175 1.8833,4.0343 0.8247,12 -2.1653,16.2925 -11.3979,29.7837 -24.74,36.1513 l -6.2302,2.9729 -98.3571,-0.024 -98.35702,-0.024 z M 243,367.1398 c 4.46,-2.3704 10.7283,-8.3075 12.6611,-11.9922 2.0181,-3.8475 4.2431,-11.41 3.5584,-12.0947 C 258.9154,342.7488 206.0559,342.5 141.7539,342.5 H 24.84107 l 0.69042,3.1435 c 2.11386,9.6243 7.41586,16.6747 15.62434,20.7765 l 6.31341,3.1549 96.01536,-0.2874 C 234.864,369.0139 239.669,368.9102 243,367.1398 Z M 97.6379,120.3579 C 110.181,106.0293 112,103.1737 112,97.8108 112,89.3804 106.8219,83.5 99.3985,83.5 95.6819,83.5 94.3472,84.139 90,88 c -2.7867,2.475 -5.6266,4.5 -6.3109,4.5 -1.4575,0 -4.8741,-2.2282 -9.4739,-6.1788 -9.04055,-7.7645 -21.62178,0.6554 -19.92145,13.3323 0.58522,4.3632 2.50161,6.9612 18.61794,25.2395 l 10.48621,11.8929 2.5511,-2.9947 c 1.403,-1.6471 6.663,-7.6921 11.6889,-13.4333 z M 399,254.8579 c -10.0671,-3.46 -13.5,-10.2896 -13.5,-26.8579 0,-20.1055 6.832,-27.508 25.3757,-27.4944 9.56705,0.01 14.25475,1.2921 18.58665,5.0956 5.2136,4.5776 7.0376,10.5124 7.0376,22.8988 0,7.7487 -0.4756,11.7324 -1.8149,15.2034 -2.1408,5.5479 -7.1355,10.2724 -12.4078,11.7365 -5.4869,1.5237 -18.06565,1.2092 -23.27725,-0.582 z m 19.45155,-11.7732 c 3.9083,-1.633 5.036,-3.3944 6.0359,-9.4277 1.1301,-6.8192 -0.2684,-15.0288 -3.0308,-17.7911 C 419.35875,213.768 418.17455,213.5 411,213.5 c -7.257,0 -8.3439,0.253 -10.5455,2.4546 -2.2416,2.2416 -2.4545,3.2335 -2.4545,11.4349 0,10.5071 0.8914,13.4473 4.7039,15.5144 3.5515,1.9257 11.3572,2.0153 15.74765,0.1808 z m 59.2154,12.193 c -5.3977,-1.4302 -11.185,-7.2576 -12.6612,-12.7492 -1.5191,-5.6502 -1.5926,-21.2378 -0.1256,-26.6274 1.5955,-5.8621 5.0082,-10.408 9.6198,-12.8141 5.6802,-2.9636 23.3694,-3.5102 28.5,-0.8807 3.0898,1.5834 3.5369,2.3079 3.8142,6.1796 0.1728,2.4122 -0.052,4.728 -0.5,5.1461 -0.4478,0.4182 -3.7391,0.3369 -7.3142,-0.1806 -8.1662,-1.1821 -17.3377,-0.2083 -20.2503,2.1503 -1.901,1.5393 -2.2797,2.9878 -2.5948,9.9236 -0.7854,17.2959 0.5856,18.6554 18.558,18.4004 l 12.2871,-0.1742 -0.015,4.1742 c -0.019,5.2794 -0.8043,6.4754 -5.0484,7.6926 -4.3342,1.243 -19.2271,1.0954 -24.2693,-0.2406 z m 50.8909,-0.2698 c -5.5325,-1.9709 -8.5916,-4.4942 -10.9892,-9.0646 -1.7946,-3.4209 -2.0687,-5.7315 -2.0687,-17.4433 0,-12.977 0.1082,-13.6841 2.7932,-18.2517 4.3814,-7.4535 8.691,-9.2483 22.207,-9.2483 10.1855,0 11.3445,0.2026 15.6538,2.7359 7.509,4.4141 9.3462,9.2866 9.3462,24.7865 0,11.4015 -0.2257,12.9679 -2.5207,17.5 -2.0449,4.0377 -3.5421,5.4969 -7.9294,7.7276 -4.6844,2.3818 -6.5564,2.7441 -13.9793,2.7061 -4.7138,-0.024 -10.3447,-0.6758 -12.5129,-1.4482 z m 19.839,-11.9003 c 2.2589,-0.9439 3.6983,-2.4416 4.468,-4.6492 1.5843,-4.545 1.4175,-16.3471 -0.2889,-20.4309 -1.6884,-4.0409 -4.9858,-4.9891 -15.109,-4.3445 -9.3616,0.5961 -9.9669,1.4617 -9.9669,14.2527 0,11.0017 0.9852,13.5665 6.0001,15.619 3.1977,1.3088 11.2745,1.0664 14.8967,-0.4471 z M 125,228.4501 v -27.0499 l 5.75,0.2999 5.75,0.2999 0.2703,20.75 0.2703,20.75 H 152.0203 167 v 6 6 h -21 -21 z m 51.269,26.0258 -2.231,-0.8973 2.1795,-5.7893 C 177.4162,244.6052 182.039,233 186.4904,222 l 8.0935,-20 3.458,0.2775 c 6.5555,0.5259 7.5887,1.1279 10.2101,5.9484 2.0216,3.7175 18.748,44.562 18.748,45.7809 0,0.8318 -5.2441,1.3944 -7.9507,0.8531 -2.3246,-0.4649 -3.6446,-1.6063 -5.0551,-4.3712 -1.05,-2.0581 -2.64,-4.0225 -3.5334,-4.3653 -2.2686,-0.8706 -19.7186,-0.753 -21.0713,0.1419 -0.6107,0.4041 -1.8698,2.2166 -2.7979,4.0277 -0.9281,1.8111 -2.8201,3.7236 -4.2046,4.25 -2.9406,1.118 -3.1781,1.1154 -6.118,-0.067 z m 29.3724,-21.7412 c 0.8119,-0.5226 0.2744,-3.1314 -1.8625,-9.0389 -1.6521,-4.5673 -3.2732,-8.0348 -3.6024,-7.7056 -1.2082,1.2082 -6.1143,15.8014 -5.5949,16.6419 0.6498,1.0514 9.4589,1.1331 11.0598,0.1026 z M 242.7703,234.75 242.5,214 l -7.791,-0.2928 c -7.3922,-0.2778 -7.8427,-0.4285 -8.7989,-2.9437 -0.5544,-1.458 -0.8734,-4.0263 -0.709,-5.7072 L 225.5,202 249.25,201.7319 273,201.4638 v 4.8957 c 0,2.895 -0.5528,5.3544 -1.3529,6.0184 -0.744,0.6175 -4.794,1.4136 -9,1.7692 L 255,214.7935 v 11.1996 c 0,6.1598 -0.2924,15.3188 -0.6498,20.3533 l -0.6497,9.1536 h -5.33 -5.3299 z m 52.8964,20.0834 C 295.3,254.4667 295,245.0167 295,233.8334 V 213.5 h -7.3776 c -8.6797,0 -9.8839,-0.9161 -9.4335,-7.1761 L 278.5,202 h 23.5 23.5 l 0.2981,4.5876 c 0.1965,3.0226 -0.1797,4.9842 -1.1028,5.7503 -0.7706,0.6395 -4.7949,1.4496 -8.9431,1.8003 l -7.542,0.6375 -0.7272,20.3622 -0.7271,20.3621 h -5.2113 c -2.8662,0 -5.5113,-0.3 -5.8779,-0.6666 z M 333,228.5 v -27 h 21 21 v 6 6 l -12.75,0.014 c -16.9558,0.018 -17.4312,0.1678 -17.0512,5.3664 l 0.3012,4.12 11.25,0.2828 11.25,0.2827 v 5.9673 5.9672 h -9.9182 c -11.8862,0 -13.0818,0.3647 -13.0818,3.9904 0,3.6434 1.449,3.979 17.25,3.996 l 12.75,0.014 v 6 6 h -21 -21 z m 243.45105,25.7328 c -0.2674,-0.697 -0.3659,-12.7345 -0.2186,-26.75 L 576.50015,202 h 21 21 l 0.2999,5.75 0.2999,5.75 h -12.9848 c -15.2763,0 -18.115,0.7483 -18.115,4.7753 0,4.6534 1.4433,5.2247 13.2,5.2247 h 10.8 v 6 6 h -12 -12 v 10 10 h -5.5314 c -3.5427,0 -5.7062,-0.4556 -6.0177,-1.2672 z m 52.549,-25.7527 v -27.0199 l 21.25,0.2699 21.25,0.2699 0.2999,5.75 0.2999,5.75 h -12.9848 c -15.8521,0 -18.115,0.6706 -18.115,5.3683 0,2.194 0.5663,3.6351 1.5818,4.0247 0.8699,0.3339 6.27,0.607 12,0.607 h 10.4182 v 6 6 h -12 -12 v 10 10 h -6 -6 z m 51.2336,0.2899 0.2664,-26.77 h 20.99997 21 l 0.2999,5.75 0.2999,5.75 h -12.9848 c -15.27627,0 -18.11497,0.7483 -18.11497,4.7753 0,4.6534 1.4433,5.2247 13.20007,5.2247 h 10.7999 v 6 6 h -10.7999 c -11.15847,0 -13.20007,0.6534 -13.20007,4.2248 0,2.9041 4.1802,3.7752 18.11497,3.7752 h 12.9848 l -0.2999,5.75 -0.2999,5.75 -21.2664,0.27 -21.26627,0.2699 z m 51.22507,25.4832 c -0.2718,-0.7082 -0.3736,-12.7549 -0.2264,-26.7704 L 731.50002,202 h 20.99996 20.99997 l 0.2999,5.75 0.2999,5.75 h -12.9848 c -15.27623,0 -18.11493,0.7483 -18.11493,4.7753 0,4.6534 1.4433,5.2247 13.20006,5.2247 h 10.79987 v 6 6 h -10.79987 c -11.15846,0 -13.20006,0.6534 -13.20006,4.2248 0,2.9041 4.1802,3.7752 18.11493,3.7752 h 12.9848 l -0.2999,5.75 -0.2999,5.75 -20.77357,0.2704 c -16.21696,0.211 -20.88186,-0.012 -21.26766,-1.0172 z M 247,157 v -2.5 h -17.9319 -17.9319 l -2.0681,-2.9043 c -2.6147,-3.672 -2.6135,-6.1326 0,-9.4608 l 2.073,-2.6349 h 22.3594 22.3593 l 2.0681,2.9044 c 1.547,2.1725 2.0681,4.4404 2.0681,9 V 157.5 l 4.75,0.1183 c 2.6125,0.065 6.1,0.4619 7.75,0.8817 1.84,0.4682 -2.5101,0.8091 -11.25,0.8817 l -14.25,0.1183 z m -66.4834,-4.8924 c -3.1889,-3.189 -3.2122,-7.0029 -0.062,-10.153 2.9438,-2.9438 4.5669,-3.0675 7.6365,-0.582 1.7221,1.3945 2.2855,2.8292 2.2064,5.6187 -0.184,6.4916 -5.5818,9.3152 -9.7808,5.1163 z M 158.9661,77.7114 C 144.8047,63.0861 134.0658,49.4608 132.4731,44.0975 129.2871,33.369 131.5356,23.8691 139.0365,16.3683 146.3201,9.0847 153.68,7.7413 162.868,12.0184 l 5.3679,2.4989 3.6321,-2.2586 c 5.5457,-3.4487 15.3403,-3.2101 20.9627,0.5106 11.1829,7.4005 15.1972,22.915 9.048,34.9685 C 198.1446,55.0573 170.801,85.5 167.9608,85.5 c -0.7992,0 -4.8468,-3.5049 -8.9947,-7.7886 z M 175.3667,59.25 C 188.7652,44.3229 192,39.698 192,35.4686 c 0,-2.9352 -0.7672,-4.7728 -3.1036,-7.4338 -4.2432,-4.8328 -8.921,-4.901 -14.4664,-0.2111 -5.9214,5.0079 -6.7026,5.0475 -12.2616,0.6213 -7.1498,-5.6927 -13.3792,-5.3057 -16.6581,1.035 -2.4556,4.7486 -1.8952,9.1266 1.8408,14.3814 4.8743,6.8558 18.9497,22.4802 20.3284,22.5656 0.6488,0.04 4.108,-3.1895 7.6872,-7.177 z"
       id="path1" />
  </g>
</svg>
